<svg xmlns="http://www.w3.org/2000/svg" width="32" height="32" viewBox="0 0 24 24"><g fill="none"><path fill="#141414" d="M8.358 6.737q.706-.722 1.478-1.375l1.556.694l4.14 1.95l.167 2.117v.729l.137-.12l.339-.193l.167.09l.086.84c-.03.094-.095.3-.129.347c-.043.051-.274.771-.386 1.123H15.7l-.42 1.697l-.54.973v1.058l.771 1.307l1.205.866c-.429-.154-1.316-.459-1.397-.459c-.086 0-.258.416-.33.626l.728.459l-1.101-.313v-.866l-.407.557l-.228.99v-.677l-.462-.394l-.9.394l.428 1.419l-.844-1.415h-.129l-.84.082l-.814-.399l-.484.536l-.467.857c.085-.317.24-.96.222-.994c-.012-.039-.428-.651-.63-.951l-.308.47l-.926 1.15l.69-1.415l-.334-.27l.334-.428l.42-1.209l.056-1.02l-.399-1.08l-.248-1.817l-.45-2.627V8.143l.467-1.406z"/><path fill="#777" d="M10.496 15.257c-.128-.094-.386-.291-.394-.317l.484-.107l1.384.069v.308h1.278l-.043.214l-1.209.163v.437l-1.303-.317H9.91l.489-.171l.15-.086l1.388.176v-.416l-.827-.081z"/><path fill="#383838" d="m15.84 8.623l-.257-1.144c-.278.128-.848.398-.917.462c-.086.078-.103 1-.051 1.226c.051.232.484.583.553.617c.068.035.24.326.265.429c.022.081.185.146.257.171l.15-.703z"/><path fill="#323031" d="m10.59 11.76l-.767.176l.429.321l-.099.399l.485-.253c.077-.124.235-.377.24-.399c0-.017-.189-.171-.288-.244"/><path fill="#2D2D2D" d="M8.388 10.86c.012-.047-.056-.373-.095-.531h-.188l-.047 1.195l.222.995l.236 1.817l.437.96l1.419 1.868l1.513.639c.193.004.6.013.668 0c.086-.017 1.697-.566 1.77-.617c.06-.039.283-.377.386-.544l.081-1.012l.536-.93l.167-.883l.245-.977l-.356 1.072l-.159.715l-.831 1.114l-.699.33l-.964.035h-.789l-.36.128v.326l.48.086c.056 0 .026.107 0 .163l1.239.107l-.956.428h-.403l-.745-.235l-.416-.129l-.544-.694l-.395-.326l-.291-.664l.189-.986l.231-.874l-.634-.27h-.54l-.103-.81l-.232-.266l-.072-.368l-.193-.33z"/><path fill="#B4B4B4" d="m13.668 12.253l.137-.557l.535-.056c.408 0 1.218.004 1.192.051c-.026.048-.189.686-.266 1.003l-.75-.373l-.347.433v.665l.094.801q-.057.283-.193.54c-.034 0-.282.142-.402.21l-.729-.214l-1.054.064l-.189-.326l.72-.591h.322l.355.231l-.158-.715l-.369-.305l-.587.305v.522h-.467l.317-.15l-.266-.115l-.364.227l-.326-.386l.686-.403l.051-1.864l.322-.163z"/><path fill="#DADADA" d="M14.469 11.512c-.231.064-.699.184-.711.192l.342.03l.686.185l.03.625l.343-.484l.351-.141l.018-.429l-.369-.056l-.471-.068z"/><path fill="#535353" d="M10.072 7.569c.043-.056.15-.163.24-.189l3.977-.609l1.239.408l.235 1.041l-.235.159l-.318-.532l.043.532l.052 1.011h-.283v.287h-1.727l-1.427.407l-1.65-.407v-.741l.48-.395l-.622-.972z"/><path fill="#A0A0A0" d="m9.262 5.932l.608-.622l2.208.262l.711 3.557l-.986 1.054V6.999l-1.088 1.525l-.382-1.067l-.214-.505l-.39.265l-.356-.54H8.86z"/><path fill="#F8F9F4" d="M10.526 5.829a14 14 0 0 0-.651-.527l.784-.36l1.204-.228l1.187.227l1.175.558l.84.844l.33.523l.128.278l.039.519l-.167-.043l-.172.249l-.205-.729l-.232.729l-.33-.806h-.488l.385 1.033l-.081.278l.668.497l-.321.498l.399.437l-.185.197l-.865-.129l-.729-.167l-.411-.578l-1.008-.6V5.7l-1.242.849z"/><path fill="#949494" d="m7.869 11.036l.146.334v.463l-.09-.142v-.218l-.129-.249l-.176-.188h-.17l-.047.188l.128.763l.232.686c.034.154.107.471.107.501c0 .035.154.09.231.116l.232-.068v.21h-.317l-.257-.258l-.078-.372l-.231-.76l-.094-.402l-.069-.69l.116-.3l.471.386z"/><path fill="#B3B3B3" d="m9.69 11.25l-.3-.141l-.085.141l.214.197h.454l.309.099l-.099-.214z"/><path fill="#A8A8A8" d="m10.612 10.179l-.472.192l.695.318l.561.355l.129-.248l-.129-.214z"/><path fill="#F8F9F4" d="M11.893 13.209v-2.435h.309l.15.515l.356.12l.827.681l.471.664l-.381-.137l-.789.347l.193-.544h-.27l-.407.197v.424z"/><path fill="#F3F3F3" d="M12.678 13.899c-.236.128-.712.385-.733.411l.377.502l.968.05l.96-.552l-.608-.124l-.352-.437q.3-.074.588-.189c.064-.043-.365.017-.588.056l-.308-.163z"/><path fill="#D7D7D7" d="m10.509 15.197l.094-.368l.185.291l.188-.291l.24.214a1 1 0 0 0 .18-.214c.017-.043.244.175.352.291h-.498z"/><path fill="#F9F9F9" d="M12.322 15.562c-.064-.086-.202-.266-.214-.296h.9v.193z"/><path fill="#F1F1F1" d="m15.806 11.16l-.154-.3l.493-.364l.167.128l-.172.146l-.334.386zm-.184 1.097l.287-.304l.06.386l-.291.18z"/><path fill="#919191" d="m16.136 11.979l.236-.399c0 .3-.159.707-.236.87c-.073.18-.214.579-.214.729c0 .145-.172.043-.253-.03l-.026-.407l.245.15l.12-.386c-.06.043-.189.128-.202.15c-.017.017-.116-.009-.163-.026v-.124l.279-.107l.111-.052z"/><path fill="#6B6B6B" d="m14.915 16.847l-.159-.84l-.116.986l.159.407l.197.442l.514.115l-.6-1.11z"/><path fill="#505050" d="M8.838 16.749c0-.056.094-.819.141-1.196l.051 1.2l-.051.754l-.767.579c.086-.129.266-.386.296-.42c.034-.043.33-.844.33-.917"/><path fill="#5A5859" d="m9.832 17.083l-.763-1.38l.926.878c.411.24 1.243.72 1.285.75c.043.026.438.343.63.502v.72l-.51-.082c-.231-.098-.728-.308-.814-.36a8 8 0 0 1-.754-1.028"/><path fill="#A5A5A5" d="m7.856 8.199l.497-1.44l-.36 1.255l-.051.673h.214L8.032 9l.128.587l.193.772l-.193.488v.943l.193.776l.125.814l.184 1.149l.184.587l.93.776l.42.77l.553.314l.394-.099l.459.283h.3v.669l-.442-.142l-.57-.3l-.694-.514l-1.35-1.419l-.368-.925c-.056-.403-.163-1.226-.185-1.29a37 37 0 0 1-.257-1.243v-.587l-.18-1.672V8.194z"/><path fill="#6E6C6D" d="m13.299 16.539l-.146-.562h.305l.368-.467l.189.57l-.326.249l-.386.21z"/><path fill="#FAFAFA" d="m11.975 16.637l-.056-.557l.78-.111l.257-.086l.176-.146l.27.232l-.18.171l-.193.351l-.146.07l-.231-.03z"/><path fill="#1C1C1C" d="m8.79 10.492l.258.475l.347.073l.244.094c.026.009.339.043.493.056l-.163-.42h.403c.043 0 .501.21.728.313l-.188-.377l-.857-.493l-.66-.214l-.6.492z"/><path fill="#AFAFAF" d="m9.146 11.096l-.24-.463l.626.056l.326-.056l.312.09l-.527.141z"/><path fill="#3D3D3D" d="m13.415 10.474l-.322.412l.776-.077l.613.03l-.566-.287l-.497-.078z"/><path fill="#999" d="m14.323 11.143l-.737.09c.137.03.442.094.557.098c.15.005.347-.098.416-.098c.056 0 .197-.06.257-.094l-.214-.125c-.086.043-.257.129-.279.129"/></g></svg>